<svg width="37" height="37" viewBox="0 0 37 37" fill="none" xmlns="http://www.w3.org/2000/svg">
<path d="M34.5422 8.98907C33.9186 6.86976 32.6251 5.00953 30.8556 3.68694C27.3766 0.958085 24.1241 -0.173145 20.3194 0.0213186C18.313 0.15985 16.3195 0.444645 14.3545 0.873463C11.5723 1.43351 9.55196 2.41147 8.17648 3.86341C7.08579 5.02485 6.24391 6.39694 5.70257 7.89542C5.47393 8.55208 5.2877 9.2227 5.1449 9.90314L5.09309 10.1263C4.96352 10.6058 4.7885 11.0718 4.5704 11.518C4.44213 11.804 4.31451 12.0904 4.20489 12.3815C4.06245 12.7078 4.00529 13.0649 4.03868 13.4194C4.16384 13.9706 4.48318 14.4583 4.93837 14.7933C5.24065 15.0703 5.43938 15.2648 5.44119 15.4419C5.41727 15.5341 5.38099 15.6226 5.33337 15.7051C4.59483 17.2618 3.68986 18.7339 2.63429 20.0957C2.19167 20.6362 1.72737 21.2667 1.82131 21.9086C1.95565 22.3949 2.27694 22.8083 2.71501 23.0586C2.91886 23.2003 3.13392 23.3251 3.35816 23.4317C3.62431 23.5672 4.06997 23.7945 4.10068 23.9568C4.14129 24.1651 4.11773 24.3807 4.03319 24.5752C3.94163 24.7683 3.84653 24.935 3.76458 25.0799C3.53817 25.4804 3.15878 26.1506 3.73083 26.6302C3.86394 26.748 4.09157 26.9269 4.29991 27.0861C4.14563 27.3571 4.0764 27.6682 4.10119 27.9791C4.1345 28.2204 4.26588 28.4373 4.46432 28.5786C4.6022 28.6765 4.74976 28.7617 4.8961 28.8454C5.25865 29.052 5.40014 29.1484 5.44892 29.3407C5.4813 29.5919 5.45853 29.847 5.38208 30.0884C5.34652 30.25 5.31162 30.4118 5.28994 30.5731C5.22801 31.134 5.29876 31.7016 5.49654 32.2301C5.81653 33.401 6.99661 34.1171 8.18298 33.8602C9.94385 33.4356 11.6805 32.9162 13.3854 32.3044C14.7716 33.1231 15.6473 35.6009 15.8755 36.5301C15.9436 36.8057 16.1908 36.9996 16.4747 36.9998H32.0658C32.2613 36.9998 32.4452 36.9071 32.5615 36.7499C32.6777 36.5927 32.7126 36.3897 32.6554 36.2028C32.4907 35.7682 32.2562 35.3634 31.961 35.0045C31.7939 34.7914 31.6452 34.5644 31.5166 34.3261C31.2387 33.7571 31.0058 33.1674 30.8198 32.5622C30.4672 31.3713 30.224 30.1507 30.093 28.9156C29.8749 27.0716 30.1533 25.2028 30.8993 23.5024C31.3558 22.5613 31.9174 21.6749 32.5735 20.8602C32.9462 20.3588 33.331 19.8404 33.6779 19.2936C34.6513 17.7814 35.1747 16.0237 35.187 14.2254C35.224 12.4581 35.0069 10.6947 34.5422 8.98907ZM33.9538 14.208C33.9434 15.7785 33.4862 17.3137 32.6356 18.6339C32.3134 19.1416 31.9425 19.6414 31.5836 20.125C30.8715 21.0145 30.2627 21.982 29.7691 23.009C28.9351 24.9111 28.6242 27.0014 28.8688 29.0639C29.0083 30.3722 29.267 31.6651 29.6415 32.9264C29.8459 33.591 30.1016 34.2388 30.4062 34.8637C30.5664 35.1695 30.7536 35.4603 30.9657 35.7327C30.9742 35.7438 30.9825 35.7553 30.9903 35.7667H16.9416C16.5309 34.3031 15.7868 32.9546 14.7677 31.8268C14.929 31.7705 15.082 31.7169 15.2242 31.6669C15.686 31.5052 16.0341 31.3829 16.2093 31.3278C18.853 30.498 20.1754 29.2966 20.1393 27.7567C20.1314 27.4161 19.8487 27.1465 19.5082 27.1545C19.1677 27.1625 18.898 27.4451 18.906 27.7856C18.9211 28.4209 18.4014 29.3471 15.839 30.1514C15.6571 30.2089 15.2952 30.3351 14.8164 30.5031C14.3744 30.6579 13.83 30.8485 13.2344 31.052L13.2308 31.0533C11.495 31.6814 9.72655 32.2153 7.93324 32.6527C7.35562 32.7648 6.79319 32.399 6.66138 31.8256C6.5279 31.4792 6.47696 31.1065 6.51266 30.737C6.52949 30.6094 6.5584 30.4817 6.58673 30.354C6.71319 29.9262 6.73285 29.4739 6.64396 29.0367C6.46727 28.4704 6.05226 28.0093 5.5076 27.7742C5.46366 27.7492 5.41908 27.7239 5.37572 27.6983C5.44155 27.5635 5.52061 27.4354 5.61181 27.3162C5.71464 27.1852 5.76002 27.0182 5.73769 26.8532C5.71536 26.6882 5.62713 26.5392 5.49322 26.4402C5.34508 26.3309 4.99279 26.0669 4.73928 25.8645C4.77057 25.807 4.80613 25.7441 4.83865 25.6872C4.93317 25.5197 5.04157 25.3268 5.147 25.1054C5.34435 24.6741 5.40224 24.1919 5.31263 23.7261C5.16868 22.97 4.44603 22.6018 3.9185 22.3326C3.73972 22.248 3.56831 22.1487 3.406 22.0357C3.27788 21.9468 3.15647 21.8484 3.04287 21.7415C3.04468 21.6488 3.14101 21.4233 3.61557 20.8442C4.71768 19.4236 5.66239 17.8876 6.43331 16.2632C6.58174 16.0088 6.6647 15.7215 6.67482 15.427C6.61209 14.8058 6.28242 14.2426 5.77151 13.8836C5.5222 13.6554 5.28676 13.4398 5.26024 13.2507C5.26255 13.1009 5.29623 12.9532 5.35902 12.8171C5.46019 12.5482 5.57885 12.2851 5.69628 12.0217C5.94776 11.5039 6.14808 10.9627 6.29427 10.4059L6.34666 10.181C6.47783 9.55129 6.64916 8.93068 6.85974 8.32286C7.34356 6.98105 8.09619 5.75212 9.07162 4.71144C10.2664 3.45042 12.0742 2.59047 14.5981 2.08252C16.5037 1.66613 18.437 1.38878 20.3828 1.25271C23.8732 1.07718 26.8674 2.12501 30.0959 4.65789C31.6645 5.81499 32.8099 7.45503 33.3562 9.32618C33.7878 10.9165 33.9892 12.5605 33.9538 14.208Z" fill="white"/>
<path d="M31.3226 9.97332H30.0441C29.9021 9.49081 29.7088 9.02485 29.4678 8.58346L30.3723 7.67892C30.5837 7.46762 30.6132 7.1352 30.4422 6.89001C29.8493 6.03938 29.1104 5.30054 28.2598 4.70761C28.0149 4.53606 27.682 4.5654 27.4709 4.77713L26.5663 5.68167C26.1247 5.44052 25.6585 5.24729 25.1758 5.10536V3.82663C25.1757 3.52796 24.9616 3.27229 24.6676 3.21961C23.6465 3.03953 22.6018 3.03953 21.5807 3.21961C21.2866 3.27229 21.0726 3.52796 21.0724 3.82663V5.10543C20.5897 5.24736 20.1235 5.44059 19.6819 5.68174L18.7774 4.7772C18.5662 4.56547 18.2334 4.53613 17.9885 4.70769C17.1378 5.30054 16.3989 6.03945 15.8061 6.89008C15.6351 7.1352 15.6645 7.46769 15.8759 7.67899L16.7805 8.58353C16.5394 9.02492 16.3462 9.49088 16.2042 9.97339H14.9257C14.627 9.97332 14.3712 10.1875 14.3187 10.4816C14.1373 11.5028 14.1373 12.548 14.3187 13.5691C14.3712 13.8633 14.627 14.0774 14.9257 14.0774H16.2042C16.3462 14.5599 16.5395 15.0259 16.7805 15.4672L15.876 16.3718C15.6646 16.5831 15.6352 16.9155 15.8061 17.1607C16.399 18.0113 17.1379 18.7502 17.9885 19.3431C18.2337 19.5138 18.5659 19.4845 18.7774 19.2736L19.682 18.369C20.1236 18.6102 20.5898 18.8034 21.0725 18.9453V20.2241C21.0726 20.5228 21.2868 20.7785 21.5807 20.8312C22.6018 21.0123 23.6466 21.0123 24.6677 20.8312C24.9617 20.7785 25.1757 20.5228 25.1759 20.2241V18.9453C25.6586 18.8034 26.1248 18.6102 26.5664 18.369L27.4709 19.2736C27.6824 19.4846 28.0147 19.5139 28.2599 19.3431C29.1105 18.7502 29.8494 18.0113 30.4423 17.1607C30.6132 16.9156 30.5838 16.5831 30.3724 16.3718L29.4678 15.4672C29.7089 15.0258 29.9021 14.5599 30.0441 14.0774H31.3227C31.6214 14.0774 31.8772 13.8633 31.9297 13.5691C32.1111 12.548 32.1111 11.5028 31.9297 10.4816C31.8771 10.1875 31.6213 9.97332 31.3226 9.97332ZM30.7885 12.8441H29.5659C29.2763 12.844 29.0258 13.0455 28.9637 13.3283C28.8159 14.0045 28.5487 14.649 28.1748 15.2316C28.0176 15.4754 28.052 15.796 28.2573 16.0009L29.1227 16.8663C28.7799 17.2929 28.3917 17.6809 27.9652 18.0237L27.0999 17.1587C26.8949 16.9537 26.5749 16.919 26.3308 17.0756C25.7481 17.4499 25.1033 17.7172 24.4267 17.8651C24.1439 17.9273 23.9425 18.1777 23.9425 18.4672V19.6897C23.3985 19.7481 22.8497 19.7481 22.3057 19.6897V18.4672C22.3057 18.1777 22.1043 17.9272 21.8215 17.8651C21.1449 17.7172 20.5001 17.4499 19.9173 17.0756C19.6735 16.9184 19.353 16.9531 19.1483 17.1587L18.2829 18.0237C17.8564 17.6809 17.4683 17.2928 17.1255 16.8663L17.9908 16.0009C18.1961 15.796 18.2305 15.4755 18.0734 15.2316C17.6995 14.6491 17.4323 14.0045 17.2845 13.3283C17.2224 13.0455 16.9718 12.844 16.6823 12.8441H15.4598C15.4012 12.2999 15.4012 11.751 15.4598 11.2067H16.6823C16.9719 11.2068 17.2224 11.0053 17.2845 10.7226C17.4324 10.0463 17.6995 9.40185 18.0734 8.81926C18.2306 8.57544 18.1963 8.25494 17.9909 8.04993L17.1255 7.18456C17.4684 6.75798 17.8565 6.36992 18.283 6.02709L19.1484 6.89217C19.353 7.09769 19.6735 7.13238 19.9174 6.97528C20.5002 6.60095 21.145 6.33364 21.8216 6.18579C22.1044 6.12357 22.3058 5.8731 22.3058 5.58361V4.3611C22.8498 4.30271 23.3985 4.30271 23.9426 4.3611V5.58361C23.9426 5.8731 24.144 6.12364 24.4267 6.18579C25.1033 6.33364 25.7482 6.60095 26.3309 6.97528C26.5749 7.13173 26.8949 7.09712 27.0999 6.89217L27.9653 6.02709C28.3919 6.36992 28.7799 6.75805 29.1228 7.18456L28.2574 8.04993C28.0521 8.25487 28.0177 8.57536 28.1749 8.81926C28.5488 9.40178 28.8159 10.0463 28.9638 10.7226C29.0259 11.0053 29.2765 11.2068 29.566 11.2067H30.7885C30.8471 11.7509 30.8471 12.2999 30.7885 12.8441Z" fill="white"/>
<path d="M14.7998 17.8836H14.0955C14.038 17.6629 13.9499 17.4513 13.8335 17.2551L14.3325 16.756C14.5732 16.5152 14.5732 16.1248 14.3325 15.884C14.0917 15.6432 13.7013 15.6432 13.4604 15.884L12.9614 16.383C12.7652 16.2668 12.5537 16.1787 12.3331 16.1212V15.4169C12.3331 15.0764 12.057 14.8003 11.7165 14.8003C11.376 14.8003 11.0998 15.0764 11.0998 15.4169V16.1212C10.8791 16.1787 10.6676 16.2668 10.4715 16.383L9.97259 15.884C9.81686 15.7282 9.5898 15.6674 9.37698 15.7244C9.16416 15.7814 8.99803 15.9477 8.94101 16.1604C8.88399 16.3731 8.94484 16.6002 9.10057 16.756L9.59948 17.2551C9.48314 17.4513 9.39498 17.6629 9.33753 17.8836H8.63323C8.29265 17.8836 8.0166 18.1597 8.0166 18.5003C8.0166 18.8408 8.29265 19.1169 8.63323 19.1169H9.33753C9.39498 19.3377 9.48314 19.5493 9.59948 19.7454L9.10057 20.2445C8.94484 20.4003 8.88399 20.6273 8.94101 20.8401C8.99803 21.0529 9.16424 21.2191 9.37698 21.2761C9.58973 21.3331 9.81678 21.2723 9.97259 21.1165L10.4715 20.6175C10.6677 20.7337 10.8792 20.8218 11.0999 20.8794V21.5836C11.0999 21.9242 11.376 22.2002 11.7165 22.2002C12.0571 22.2002 12.3332 21.9242 12.3332 21.5836V20.8794C12.5539 20.8218 12.7654 20.7337 12.9615 20.6175L13.4604 21.1165C13.7012 21.3573 14.0916 21.3573 14.3325 21.1165C14.5732 20.8757 14.5732 20.4853 14.3325 20.2445L13.8335 19.7454C13.9499 19.5493 14.038 19.3377 14.0955 19.1169H14.7998C15.1404 19.1169 15.4164 18.8408 15.4164 18.5003C15.4164 18.1597 15.1404 17.8836 14.7998 17.8836ZM11.7165 19.7336C11.0353 19.7336 10.4831 19.1814 10.4831 18.5003C10.4831 17.8191 11.0353 17.2669 11.7165 17.2669C12.3976 17.2669 12.9498 17.8191 12.9498 18.5003C12.949 19.1811 12.3973 19.7328 11.7165 19.7336Z" fill="white"/>
<path d="M8.48801 11.7171C8.52602 11.8408 8.57566 11.9607 8.63622 12.0751L8.30272 12.4087C8.14699 12.5645 8.08614 12.7915 8.14316 13.0043C8.20018 13.2171 8.36639 13.3833 8.57913 13.4403C8.79188 13.4973 9.01893 13.4365 9.17474 13.2807L9.50918 12.9461C9.62328 13.0064 9.74274 13.0559 9.86602 13.094V13.5671C9.86602 13.9077 10.1421 14.1837 10.4827 14.1837C10.8232 14.1837 11.0993 13.9077 11.0993 13.5671V13.094C11.2226 13.056 11.342 13.0065 11.4561 12.9461L11.7906 13.2808C12.0314 13.5216 12.4219 13.5216 12.6627 13.2808C12.9034 13.04 12.9034 12.6496 12.6627 12.4088L12.3291 12.0751C12.3897 11.9607 12.4394 11.8409 12.4774 11.7171H12.9493C13.2898 11.7171 13.5659 11.441 13.5659 11.1005C13.5659 10.7599 13.2898 10.4839 12.9493 10.4839H12.4774C12.4394 10.3601 12.3897 10.2403 12.3291 10.1259L12.6627 9.79222C12.8185 9.63642 12.8792 9.40944 12.8222 9.19662C12.7652 8.98387 12.599 8.81766 12.3862 8.76064C12.1735 8.70363 11.9464 8.76447 11.7906 8.9202L11.4561 9.25486C11.342 9.19459 11.2226 9.14516 11.0993 9.10715V8.63389C11.0993 8.29331 10.8232 8.01726 10.4827 8.01726C10.1421 8.01726 9.86602 8.29331 9.86602 8.63389V9.10723C9.74274 9.14524 9.62328 9.19467 9.50918 9.25493L9.17466 8.9202C8.93388 8.67942 8.54351 8.67942 8.30265 8.9202C8.06186 9.16099 8.06186 9.55136 8.30265 9.79222L8.63622 10.1259C8.57559 10.2403 8.52595 10.3601 8.48794 10.4839H8.01605C7.67546 10.4839 7.39941 10.76 7.39941 11.1005C7.39941 11.4411 7.67554 11.7171 8.01605 11.7171H8.48801V11.7171ZM10.2591 10.266C10.6366 10.1647 11.0351 10.3297 11.2306 10.6682C11.4261 11.0067 11.3698 11.4343 11.0934 11.7107C10.8466 11.9578 10.4751 12.0318 10.1523 11.8982C9.8296 11.7645 9.61916 11.4496 9.61916 11.1004C9.61909 10.7095 9.88156 10.3672 10.2591 10.266Z" fill="white"/>
<path d="M23.1245 8.01712C20.9108 8.01712 19.1162 9.81167 19.1162 12.0254C19.1187 14.2381 20.9118 16.0311 23.1245 16.0337C25.3382 16.0337 27.1328 14.2392 27.1328 12.0254C27.1328 9.81167 25.3382 8.01712 23.1245 8.01712ZM23.1245 14.8003C21.5919 14.8003 20.3496 13.5579 20.3496 12.0254C20.3512 10.4935 21.5926 9.25205 23.1245 9.25039C24.6571 9.25039 25.8995 10.4928 25.8995 12.0254C25.8995 13.5579 24.6571 14.8003 23.1245 14.8003Z" fill="white"/>
</svg>
