<svg width="37" height="37" viewBox="0 0 37 37" fill="none" xmlns="http://www.w3.org/2000/svg">
<path d="M16.3033 12.454C16.4867 10.4608 17.1936 8.62021 18.2855 7.06385C17.3975 3.02928 13.7975 0 9.50158 0C4.54201 0 0.505859 4.03615 0.505859 8.9973C0.505859 13.3145 3.56348 16.9287 7.62718 17.7939C9.67163 15.0078 12.7536 13.039 16.3033 12.454ZM5.90314 11.1386C5.90314 10.8111 6.15426 10.5584 6.48254 10.5584H8.3286V10.127L8.0759 9.69557H6.48175C6.15348 9.69557 5.90235 9.44287 5.90235 9.11538C5.90235 8.78789 6.15348 8.53519 6.48175 8.53519H7.38943L5.42607 5.30753C5.32216 5.12883 5.21824 4.90604 5.21824 4.69743C5.21824 3.87949 5.97714 3.61183 6.49671 3.61183C7.12177 3.61183 7.40439 4.10306 7.50909 4.31089L9.50237 8.10458L11.4941 4.31089C11.6003 4.10306 11.8814 3.61183 12.5049 3.61183C13.026 3.61183 13.7841 3.88028 13.7841 4.69743C13.7841 4.90604 13.6802 5.12883 13.5771 5.30675L11.6129 8.53519H12.5198C12.8465 8.53519 13.0992 8.78789 13.0992 9.11538C13.0992 9.44287 12.8465 9.69557 12.5198 9.69557H10.9288L10.6761 10.127V10.5584H12.5206C12.8473 10.5584 13.1 10.8111 13.1 11.1386C13.1 11.4661 12.8473 11.7188 12.5206 11.7188H10.6761V13.1909C10.6761 13.9049 10.2439 14.3812 9.50237 14.3812C8.75843 14.3812 8.32782 13.9049 8.32782 13.1909V11.7188H6.48175C6.15348 11.7188 5.90314 11.4661 5.90314 11.1386Z" fill="white"/>
<path d="M27.4971 4.49826C22.9555 4.49826 19.1988 7.88494 18.5942 12.2635C20.3112 12.2761 21.9471 12.6154 23.4554 13.2137C23.5554 12.9839 23.7616 12.8398 24.0828 12.8398H24.3946C24.0828 12.3934 23.949 11.8282 23.949 11.248C23.949 9.4043 25.5849 8.11009 27.6821 8.11009C30.2878 8.11009 31.5505 9.50822 31.5505 10.6686C31.5505 11.3385 31.0892 11.7101 30.4342 11.7101C29.1259 11.7101 29.928 9.89554 27.9206 9.89554C27.0436 9.89554 26.2107 10.4167 26.2107 11.3826C26.2107 11.8888 26.4626 12.3942 26.7012 12.8406H28.3229C28.9322 12.8406 29.2455 13.0642 29.2455 13.5546C29.2455 14.045 28.933 14.2678 28.3229 14.2678H27.1467C27.1924 14.3875 27.2231 14.4914 27.2231 14.6252C27.2231 14.8653 27.1633 15.1031 27.0704 15.3353C27.5569 15.7368 28.0056 16.1824 28.4315 16.6476C28.844 16.7311 29.2117 16.8271 29.6478 16.8271C29.8989 16.8271 30.5122 16.6634 30.7476 16.6634C31.297 16.6634 31.6104 17.0798 31.6104 17.6144C31.6104 18.4536 30.8593 18.818 30.0855 18.8684C30.5988 19.7305 31.0262 20.6468 31.3419 21.6159C34.3814 20.1713 36.4944 17.079 36.4944 13.494C36.4928 8.53441 32.4566 4.49826 27.4971 4.49826Z" fill="white"/>
<path d="M19.0957 26.8258V30.5069C20.2096 30.4329 21.3826 29.9125 21.3826 28.6852C21.3826 27.4202 20.0971 27.0486 19.0957 26.8258Z" fill="white"/>
<path d="M15.8965 22.4196C15.8965 23.3509 16.5853 23.8878 17.9787 24.1681V20.8389C16.7128 20.8774 15.8965 21.6198 15.8965 22.4196Z" fill="white"/>
<path d="M18.4997 14.5079C12.2986 14.5079 7.25244 19.5533 7.25244 25.7544C7.25244 31.9554 12.2986 37 18.4997 37C24.7007 37 29.7477 31.9562 29.7477 25.7544C29.7477 19.5525 24.7007 14.5079 18.4997 14.5079ZM19.0956 32.4041V33.5574C19.0956 33.8739 18.8515 34.1896 18.5359 34.1896C18.2202 34.1896 17.9785 33.8747 17.9785 33.5574V32.4041C14.8374 32.3301 13.274 30.4518 13.274 28.9812C13.274 28.2397 13.7196 27.8114 14.4265 27.8114C16.5087 27.8114 14.8902 30.3778 17.9785 30.5077V26.6211C15.2248 26.1196 13.5543 24.9112 13.5543 22.8463C13.5543 20.3185 15.6546 19.0164 17.9785 18.9424V17.9521C17.9785 17.6348 18.2202 17.3191 18.5359 17.3191C18.8515 17.3191 19.0956 17.6348 19.0956 17.9521V18.9424C20.5433 18.981 23.5183 19.8895 23.5183 21.7135C23.5183 22.4385 22.9782 22.8644 22.3469 22.8644C21.1385 22.8644 21.155 20.8774 19.0964 20.8389V24.3712C21.551 24.8923 23.7245 25.6166 23.7245 28.4821C23.7245 30.9729 21.8635 32.238 19.0956 32.4041Z" fill="white"/>
</svg>
