<svg width="37" height="37" viewBox="0 0 37 37" fill="none" xmlns="http://www.w3.org/2000/svg">
    <path d="M36.8398 1.11533C36.784 0.611443 36.3862 0.213418 35.882 0.157525C27.3039 -0.795196 19.9915 2.63629 14.0268 8.77633C12.3198 10.5336 10.8392 12.3936 9.57538 14.1886C7.43649 14.1017 5.06499 15.0694 3.38368 16.7507L0.317475 19.8169C-0.0294567 20.1638 -0.100029 20.7007 0.145279 21.1256C0.390587 21.5504 0.890519 21.7573 1.36476 21.6306C2.07613 21.4395 3.23209 21.2173 4.34261 21.1657C4.74854 21.1467 5.08588 21.1527 5.36619 21.1741C4.68955 22.4755 4.17098 23.5657 3.99907 23.8386C3.72977 24.2671 3.79215 24.8247 4.15009 25.1826L5.92427 26.9568C3.34219 30.4783 3.29956 32.2819 3.30859 32.5373C3.32751 33.0785 3.74953 33.5855 4.44847 33.5855C5.0537 33.5855 6.78948 33.3286 9.94941 30.9819L11.8156 32.8481C12.1761 33.2086 12.7393 33.269 13.1683 32.9935C13.4602 32.8058 14.4863 32.309 15.7168 31.6659C15.7372 32.5831 15.6127 33.9299 15.3425 35.7554C15.1889 36.7908 16.4477 37.4141 17.1813 36.6807L20.2475 33.6145C21.8286 32.0334 22.7455 29.6851 22.6778 27.4821C24.5688 26.1607 26.5361 24.6019 28.3729 22.8007C34.4545 16.8368 37.7804 9.57972 36.8398 1.11533ZM34.7662 2.23093C34.9392 4.56827 34.7546 6.83391 34.2168 9.02644C32.8813 8.60583 31.5757 7.77957 30.3966 6.60074C29.2133 5.41711 28.3853 4.10616 27.9664 2.76586C30.1581 2.23601 32.4251 2.05647 34.7662 2.23093ZM4.20119 18.9994L4.9165 18.2838C5.78172 17.4188 6.90691 16.7958 8.0259 16.5158C7.44128 17.4437 6.92018 18.3298 6.46062 19.1476C5.75066 18.9909 4.96139 18.9618 4.20119 18.9994ZM6.25257 24.2192C6.48715 23.7562 6.77085 23.1758 7.29167 22.1918L8.71864 23.619C8.18765 24.1887 7.70833 24.7298 7.27643 25.2427L6.25257 24.2192ZM11.5536 23.8045C12.3435 23.0149 13.1009 22.8707 14.0417 22.8503C14.0211 23.7672 13.8741 24.5503 13.0868 25.3376C9.72132 28.703 7.41447 30.2059 6.03493 30.8766C6.71552 29.4706 8.22237 27.1358 11.5536 23.8045ZM12.7729 30.7394L11.655 29.6213C12.1654 29.1877 12.7048 28.707 13.2739 28.174L14.7929 29.693C13.7942 30.2262 13.3775 30.4269 12.7729 30.7394ZM18.7142 32.0814L17.8464 32.9495C17.9167 31.8979 17.8924 31.1318 17.7931 30.5407C18.5902 30.0919 19.456 29.5829 20.3633 29.0135C20.1047 30.1596 19.5235 31.2724 18.7142 32.0814ZM16.7664 28.6005L14.8228 26.6567C16.2611 25.0742 16.2074 23.5493 16.2074 21.7678C16.2074 21.169 15.7222 20.6838 15.1235 20.6838C13.4591 20.6838 11.8574 20.5946 10.2345 22.0687L8.37848 20.2127C13.4467 11.3254 19.305 5.69883 25.8871 3.38181C26.4082 5.06792 27.4224 6.69248 28.8638 8.13384C30.2984 9.56871 31.9153 10.5804 33.5941 11.1035C31.2635 17.6495 25.6384 23.5041 16.7664 28.6005Z"
          fill="white"/>
    <path d="M27.331 9.66666C25.2175 7.55346 21.7787 7.55346 19.6655 9.66666C17.5523 11.7801 17.5523 15.219 19.6655 17.3322C21.7787 19.4454 25.2175 19.4457 27.331 17.3322C29.4442 15.219 29.4442 11.7801 27.331 9.66666ZM25.7979 15.7991C24.5299 17.0671 22.4663 17.0671 21.1986 15.7991C19.9305 14.531 19.9305 12.4678 21.1986 11.1998C22.4663 9.93201 24.5296 9.93173 25.7979 11.1998C27.0659 12.4678 27.0659 14.531 25.7979 15.7991Z"
          fill="white"/>
</svg>
