<svg width="37" height="37" viewBox="0 0 37 37" fill="none" xmlns="http://www.w3.org/2000/svg">
<path d="M0 15.0312C0 17.1834 1.47696 18.9765 3.46875 19.4937V34.6875H1.15625C0.519373 34.6875 0 35.2046 0 35.8438C0 36.4829 0.519445 37 1.15625 37H35.8438C36.4851 37 37 36.4829 37 35.8438C37 35.2046 36.4851 34.6875 35.8438 34.6875H33.5312V19.4937C35.523 18.9765 37 17.1834 37 15.0312V13.875H0V15.0312ZM23.125 19.6562C25.6814 19.6562 27.75 17.5854 27.75 15.0312C27.75 17.1834 29.227 18.9765 31.2188 19.4937V34.6875H13.875V19.6562C16.4314 19.6562 18.5 17.5854 18.5 15.0312C18.5 17.5854 20.5732 19.6562 23.125 19.6562ZM12.7188 19.4937V34.6875H5.78125V19.4937C7.77311 18.9765 9.25 17.1834 9.25 15.0312C9.25 17.1834 10.727 18.9765 12.7188 19.4937ZM32.375 3.46875H4.625L0 12.7188H37L32.375 3.46875ZM9.76945 6.03873L7.45695 10.6637C7.35303 10.867 7.14982 10.9844 6.9375 10.9844C6.85165 10.9844 6.76363 10.9664 6.68002 10.9235C6.39544 10.7812 6.278 10.4334 6.42254 10.1488L8.73503 5.52384C8.87957 5.23926 9.22507 5.12414 9.50965 5.26412C9.79655 5.40641 9.90942 5.75415 9.76945 6.03873ZM14.3944 6.03873L12.0819 10.6637C11.978 10.867 11.7748 10.9844 11.5625 10.9844C11.4766 10.9844 11.3886 10.9664 11.305 10.9235C11.0204 10.7812 10.903 10.4334 11.0475 10.1488L13.36 5.52384C13.5046 5.23926 13.8524 5.12414 14.1347 5.26412C14.4215 5.40641 14.5344 5.75415 14.3944 6.03873ZM19.0781 10.4062C19.0781 10.727 18.8207 10.9844 18.5 10.9844C18.1816 10.9844 17.9219 10.7269 17.9219 10.4062V5.78125C17.9219 5.46054 18.1816 5.20312 18.5 5.20312C18.8207 5.20312 19.0781 5.46061 19.0781 5.78125V10.4062ZM25.7175 10.9121C25.6272 10.9618 25.5324 10.9844 25.4375 10.9844C25.2343 10.9844 25.0356 10.876 24.9316 10.684L22.4023 6.05904C22.2488 5.77901 22.3526 5.42671 22.6327 5.27539C22.9083 5.12183 23.265 5.22119 23.4186 5.50346L25.9479 10.1285C26.0969 10.4085 25.9976 10.7608 25.7175 10.9121ZM30.3199 10.9234C30.2387 10.9663 30.1528 10.9844 30.0625 10.9844C29.8502 10.9844 29.647 10.8669 29.5476 10.6637L27.2351 6.03866C27.0906 5.75408 27.208 5.40634 27.4925 5.26405C27.7725 5.12175 28.1248 5.23695 28.2694 5.52377L30.5819 10.1488C30.7219 10.4333 30.609 10.7812 30.3199 10.9234ZM9.82812 27.9262V25.2614C9.48934 25.0582 9.25 24.7058 9.25 24.2813C9.25 23.6422 9.76945 23.1251 10.4062 23.1251C11.0476 23.1251 11.5625 23.6422 11.5625 24.2813C11.5625 24.7059 11.3254 25.0582 10.9844 25.2614V27.9262C11.3254 28.1295 11.5625 28.4818 11.5625 28.9063C11.5625 29.5454 11.0476 30.0626 10.4062 30.0626C9.76937 30.0626 9.25 29.5454 9.25 28.9063C9.25 28.4817 9.48942 28.1294 9.82812 27.9262ZM4.625 1.15625C4.625 0.517133 5.14445 0 5.78125 0H31.2188C31.8601 0 32.375 0.517133 32.375 1.15625C32.375 1.79537 31.8601 2.3125 31.2188 2.3125H5.78125C5.14445 2.3125 4.625 1.79537 4.625 1.15625ZM20.266 25.8462L19.4486 25.0287L22.7186 21.7587L23.536 22.5762L20.266 25.8462ZM20.266 29.1163L19.4486 28.2987L25.9886 21.7587L26.8061 22.5762L20.266 29.1163ZM25.9885 25.0288L26.806 25.8463L23.536 29.1163L22.7185 28.2988L25.9885 25.0288Z" fill="white"/>
</svg>
