<svg width="37" height="37" viewBox="0 0 37 37" fill="none" xmlns="http://www.w3.org/2000/svg">
<path d="M36.8141 17.2361H35.0389V9.06999C35.0389 7.11224 33.4462 5.51956 31.4884 5.51956H29.0841L26.6236 1.09571C26.2486 0.419635 25.535 0 24.761 0C24.4003 0 24.0424 0.0930312 23.7264 0.268376L14.2836 5.51944H3.73598C1.77824 5.51944 0.185547 7.11213 0.185547 9.06988V33.4495C0.185547 35.4072 1.77824 36.9999 3.73598 36.9999H31.4884C33.4462 36.9999 35.0389 35.4072 35.0389 33.4495V26.2896H36.8141V17.2361ZM31.4884 6.93966C32.5819 6.93966 33.4752 7.77042 33.5952 8.83343H30.9267L29.8743 6.93966H31.4884ZM24.4173 1.5096C24.7503 1.32288 25.1984 1.45347 25.3823 1.78516L29.302 8.83277H11.2473L24.4173 1.5096ZM33.6187 33.4495C33.6187 34.6239 32.6628 35.5798 31.4883 35.5798H3.73598C2.56149 35.5798 1.60565 34.6239 1.60565 33.4495V9.06999C1.60565 7.8955 2.56149 6.93966 3.73598 6.93966H11.7301L8.32456 8.83354H4.17981C3.78714 8.83354 3.4697 9.15164 3.4697 9.54365C3.4697 9.93566 3.78714 10.2538 4.17981 10.2538H5.7704H31.7164H33.6187V17.2367H28.4258C26.0143 17.2367 24.0517 19.1994 24.0517 21.6109V21.9162C24.0517 24.3278 26.0144 26.2904 28.4258 26.2904H33.6187V33.4495ZM35.3939 24.8695H35.0389H28.4258C26.7969 24.8695 25.4718 23.5445 25.4718 21.9155V21.6101C25.4718 19.9812 26.7968 18.6561 28.4258 18.6561H35.0389H35.3939V24.8695ZM30.6008 21.8211C30.6008 22.6875 29.8992 23.3889 29.0329 23.3889C28.1666 23.3889 27.4651 22.6873 27.4651 21.8211C27.4651 20.9549 28.1667 20.2533 29.0329 20.2533C29.8993 20.2532 30.6008 20.9554 30.6008 21.8211Z" fill="white"/>
</svg>
